<?xml version="1.0" encoding="UTF-8"?>
<svg version="1.1" xmlns="http://www.w3.org/2000/svg" width="23" height="23">
<path d="M0 0 C1.8871875 -0.02126953 1.8871875 -0.02126953 3.8125 -0.04296875 C7 0.1875 7 0.1875 9 2.1875 C9.265625 4.71875 9.265625 4.71875 9.25 7.6875 C9.25515625 8.6671875 9.2603125 9.646875 9.265625 10.65625 C9 13.1875 9 13.1875 7 15.1875 C3.5 15.6875 3.5 15.6875 0 16.1875 C-0.66 16.8475 -1.32 17.5075 -2 18.1875 C-4.125 17.8125 -4.125 17.8125 -6 17.1875 C-6 16.5275 -6 15.8675 -6 15.1875 C-6.99 14.8575 -7.98 14.5275 -9 14.1875 C-10.57170996 11.04408007 -10.23175783 7.62978549 -10 4.1875 C-9.67 3.1975 -9.34 2.2075 -9 1.1875 C-6.02958551 -0.29770725 -3.30235553 0.0169178 0 0 Z M-8 4.1875 C-8.34216235 8.83944714 -8.34216235 8.83944714 -7 13.1875 C-6.01 13.1875 -5.02 13.1875 -4 13.1875 C-3.67 14.1775 -3.34 15.1675 -3 16.1875 C-2.34 15.5275 -1.68 14.8675 -1 14.1875 C1.32817964 13.81989269 3.6618385 13.48508419 6 13.1875 C7.2245178 12.18280377 7.2245178 12.18280377 7.1328125 10.15625 C7.13023438 9.3415625 7.12765625 8.526875 7.125 7.6875 C7.12757812 6.8728125 7.13015625 6.058125 7.1328125 5.21875 C7.2245178 3.19219623 7.2245178 3.19219623 6 2.1875 C4.02380553 2.06235072 2.04261827 2.0117724 0.0625 2 C-1.01902344 1.98582031 -2.10054687 1.97164063 -3.21484375 1.95703125 C-6.14044315 1.89701969 -6.14044315 1.89701969 -8 4.1875 Z " fill="#0062CC" transform="translate(12,2.8125)"/>
</svg>
